<mxfile host="app.diagrams.net" agent="Mozilla/5.0 (X11; Linux x86_64) AppleWebKit/537.36 (KHTML, like Gecko) Chrome/135.0.0.0 Safari/537.36" version="26.2.14">
  <diagram name="Page-1" id="3hEsWZGhNefQVvCpEWHl">
    <mxGraphModel dx="815" dy="413" grid="0" gridSize="10" guides="1" tooltips="1" connect="1" arrows="1" fold="1" page="1" pageScale="1" pageWidth="850" pageHeight="1100" background="light-dark(#181818, #121212)" math="0" shadow="0">
      <root>
        <mxCell id="0" />
        <mxCell id="1" parent="0" />
        <mxCell id="oDxUF16mtNmP46-manbr-8" style="edgeStyle=orthogonalEdgeStyle;rounded=0;orthogonalLoop=1;jettySize=auto;html=1;" edge="1" parent="1" source="oDxUF16mtNmP46-manbr-1" target="oDxUF16mtNmP46-manbr-2">
          <mxGeometry relative="1" as="geometry" />
        </mxCell>
        <mxCell id="oDxUF16mtNmP46-manbr-1" value="droplet-ui" style="image;aspect=fixed;perimeter=ellipsePerimeter;html=1;align=center;shadow=0;dashed=0;spacingTop=3;image=img/lib/active_directory/laptop_client.svg;" vertex="1" parent="1">
          <mxGeometry x="80" y="240" width="45" height="50" as="geometry" />
        </mxCell>
        <mxCell id="oDxUF16mtNmP46-manbr-2" value="api gateway (nginx)" style="sketch=0;points=[[0,0,0],[0.25,0,0],[0.5,0,0],[0.75,0,0],[1,0,0],[0,1,0],[0.25,1,0],[0.5,1,0],[0.75,1,0],[1,1,0],[0,0.25,0],[0,0.5,0],[0,0.75,0],[1,0.25,0],[1,0.5,0],[1,0.75,0]];outlineConnect=0;fontColor=#232F3E;fillColor=#8C4FFF;strokeColor=#ffffff;dashed=0;verticalLabelPosition=bottom;verticalAlign=top;align=center;html=1;fontSize=12;fontStyle=0;aspect=fixed;shape=mxgraph.aws4.resourceIcon;resIcon=mxgraph.aws4.api_gateway;" vertex="1" parent="1">
          <mxGeometry x="240" y="238" width="54" height="54" as="geometry" />
        </mxCell>
        <mxCell id="oDxUF16mtNmP46-manbr-13" style="edgeStyle=orthogonalEdgeStyle;rounded=0;orthogonalLoop=1;jettySize=auto;html=1;" edge="1" parent="1" source="oDxUF16mtNmP46-manbr-3" target="oDxUF16mtNmP46-manbr-4">
          <mxGeometry relative="1" as="geometry">
            <Array as="points">
              <mxPoint x="480" y="140" />
            </Array>
          </mxGeometry>
        </mxCell>
        <mxCell id="oDxUF16mtNmP46-manbr-14" style="edgeStyle=orthogonalEdgeStyle;rounded=0;orthogonalLoop=1;jettySize=auto;html=1;" edge="1" parent="1" source="oDxUF16mtNmP46-manbr-3" target="oDxUF16mtNmP46-manbr-10">
          <mxGeometry relative="1" as="geometry" />
        </mxCell>
        <mxCell id="oDxUF16mtNmP46-manbr-15" style="edgeStyle=orthogonalEdgeStyle;rounded=0;orthogonalLoop=1;jettySize=auto;html=1;" edge="1" parent="1" source="oDxUF16mtNmP46-manbr-3" target="oDxUF16mtNmP46-manbr-12">
          <mxGeometry relative="1" as="geometry">
            <Array as="points">
              <mxPoint x="480" y="390" />
            </Array>
          </mxGeometry>
        </mxCell>
        <mxCell id="oDxUF16mtNmP46-manbr-3" value="droplet-api" style="rounded=1;whiteSpace=wrap;html=1;" vertex="1" parent="1">
          <mxGeometry x="420" y="240" width="120" height="60" as="geometry" />
        </mxCell>
        <mxCell id="oDxUF16mtNmP46-manbr-4" value="Azure Blob Storage" style="sketch=0;pointerEvents=1;shadow=0;dashed=0;html=1;strokeColor=none;fillColor=#DF8C42;labelPosition=center;verticalLabelPosition=bottom;verticalAlign=top;align=center;outlineConnect=0;shape=mxgraph.veeam2.azure_blob;" vertex="1" parent="1">
          <mxGeometry x="645" y="120" width="60" height="60" as="geometry" />
        </mxCell>
        <mxCell id="oDxUF16mtNmP46-manbr-9" style="edgeStyle=orthogonalEdgeStyle;rounded=0;orthogonalLoop=1;jettySize=auto;html=1;entryX=-0.004;entryY=0.428;entryDx=0;entryDy=0;entryPerimeter=0;" edge="1" parent="1" source="oDxUF16mtNmP46-manbr-2" target="oDxUF16mtNmP46-manbr-3">
          <mxGeometry relative="1" as="geometry" />
        </mxCell>
        <mxCell id="oDxUF16mtNmP46-manbr-10" value="account-metadata" style="image;aspect=fixed;html=1;points=[];align=center;fontSize=12;image=img/lib/azure2/databases/Azure_Database_PostgreSQL_Server.svg;" vertex="1" parent="1">
          <mxGeometry x="653.63" y="241.5" width="42.75" height="57" as="geometry" />
        </mxCell>
        <mxCell id="oDxUF16mtNmP46-manbr-12" value="inode-metadata" style="dashed=0;outlineConnect=0;html=1;align=center;labelPosition=center;verticalLabelPosition=bottom;verticalAlign=top;shape=mxgraph.weblogos.mongodb" vertex="1" parent="1">
          <mxGeometry x="661.56" y="360" width="34.82" height="60" as="geometry" />
        </mxCell>
      </root>
    </mxGraphModel>
  </diagram>
</mxfile>
